<svg width="36" height="36" viewBox="0 0 36 36" fill="none" xmlns="http://www.w3.org/2000/svg">
<path d="M4.5 33H31.5M8.4 12.57H6C5.175 12.57 4.5 13.245 4.5 14.07V27C4.5 27.825 5.175 28.5 6 28.5H8.4C9.225 28.5 9.9 27.825 9.9 27V14.07C9.9 13.245 9.225 12.57 8.4 12.57ZM19.2 7.785H16.8C15.975 7.785 15.3 8.46 15.3 9.285V27C15.3 27.825 15.975 28.5 16.8 28.5H19.2C20.025 28.5 20.7 27.825 20.7 27V9.285C20.7 8.46 20.025 7.785 19.2 7.785ZM30 3H27.6C26.775 3 26.1 3.675 26.1 4.5V27C26.1 27.825 26.775 28.5 27.6 28.5H30C30.825 28.5 31.5 27.825 31.5 27V4.5C31.5 3.675 30.825 3 30 3Z" stroke="#C0C2C9" stroke-width="1.5" stroke-linecap="round" stroke-linejoin="round"/>
</svg>
