<svg width="36" height="36" viewBox="0 0 36 36" fill="none" xmlns="http://www.w3.org/2000/svg">
<path d="M25.455 21.66C27.51 22.005 29.775 21.645 31.365 20.58C33.48 19.17 33.48 16.86 31.365 15.45C29.76 14.385 27.465 14.025 25.41 14.385M10.5 21.66C8.44497 22.005 6.17997 21.645 4.58997 20.58C2.47497 19.17 2.47497 16.86 4.58997 15.45C6.19497 14.385 8.48997 14.025 10.545 14.385M27 10.74C26.9056 10.725 26.8094 10.725 26.715 10.74C25.7139 10.7038 24.7662 10.2798 24.072 9.55764C23.3778 8.83547 22.9916 7.8717 22.995 6.87C22.995 4.725 24.72 3 26.865 3C27.8914 3 28.8757 3.40773 29.6015 4.1335C30.3272 4.85926 30.735 5.84361 30.735 6.87C30.7322 7.87241 30.342 8.83493 29.6458 9.55622C28.9497 10.2775 28.0017 10.7017 27 10.74ZM8.95497 10.74C9.04497 10.725 9.14997 10.725 9.23997 10.74C10.241 10.7038 11.1888 10.2798 11.883 9.55764C12.5771 8.83547 12.9634 7.8717 12.96 6.87C12.96 4.725 11.235 3 9.08997 3C8.06359 3 7.07924 3.40773 6.35347 4.1335C5.6277 4.85926 5.21997 5.84361 5.21997 6.87C5.23497 8.97 6.88497 10.665 8.95497 10.74ZM18 21.945C17.9056 21.93 17.8094 21.93 17.715 21.945C16.7139 21.9088 15.7662 21.4848 15.072 20.7626C14.3778 20.0405 13.9916 19.0767 13.995 18.075C13.995 15.93 15.72 14.205 17.865 14.205C18.8914 14.205 19.8757 14.6127 20.6015 15.3385C21.3272 16.0643 21.735 17.0486 21.735 18.075C21.72 20.175 20.07 21.885 18 21.945ZM13.635 26.67C11.52 28.08 11.52 30.39 13.635 31.8C16.035 33.405 19.965 33.405 22.365 31.8C24.48 30.39 24.48 28.08 22.365 26.67C19.98 25.08 16.035 25.08 13.635 26.67Z" stroke="#C0C2C9" stroke-width="1.5" stroke-linecap="round" stroke-linejoin="round"/>
</svg>
