<svg width="48" height="48" viewBox="0 0 48 48" fill="none" xmlns="http://www.w3.org/2000/svg">
<path d="M44 20V30C44 40 40 44 30 44H18C8 44 4 40 4 30V18C4 8 8 4 18 4H28" stroke="black" stroke-width="1.5" stroke-linecap="round" stroke-linejoin="round"/>
<path d="M44.0001 20H36.0001C30.0001 20 28.0001 18 28.0001 12V4L44.0001 20ZM13.2401 31.46C12.5801 29.4 13.3601 26.86 15.5001 26.16C16.6401 25.8 18.0401 26.1 18.8201 27.2C19.5601 26.06 21.0201 25.8 22.1401 26.16C24.3001 26.86 25.0601 29.4 24.4201 31.46C23.4001 34.72 19.8201 36.42 18.8201 36.42C17.8401 36.4 14.3001 34.74 13.2401 31.46Z" stroke="black" stroke-width="1.5" stroke-linecap="round" stroke-linejoin="round"/>
</svg>
