<svg width="48" height="48" viewBox="0 0 48 48" fill="none" xmlns="http://www.w3.org/2000/svg">
<path d="M18 44H42M14.24 18.26L29.74 33.76M7.04003 35.32L18.34 24M12.68 40.98L24 29.66M5.82003 35.16L12.84 42.18C13.965 43.3036 15.49 43.9347 17.08 43.9347C18.67 43.9347 20.195 43.3036 21.32 42.18L42.18 21.32C43.3036 20.195 43.9347 18.67 43.9347 17.08C43.9347 15.49 43.3036 13.965 42.18 12.84L35.16 5.82C34.035 4.69639 32.51 4.06528 30.92 4.06528C29.33 4.06528 27.805 4.69639 26.68 5.82L5.82003 26.68C4.69642 27.805 4.06531 29.33 4.06531 30.92C4.06531 32.51 4.69642 34.035 5.82003 35.16Z" stroke="black" stroke-width="1.5" stroke-linecap="round" stroke-linejoin="round"/>
</svg>
