<svg width="48" height="48" viewBox="0 0 48 48" fill="none" xmlns="http://www.w3.org/2000/svg">
<path d="M20.14 5.64L6.28004 16.74C4.72004 17.98 3.72004 20.6 4.06004 22.56L6.72004 38.48C7.20004 41.32 9.92004 43.62 12.8 43.62H35.2C38.06 43.62 40.8 41.3 41.28 38.48L43.94 22.56C44.26 20.6 43.26 17.98 41.72 16.74L27.86 5.66C25.72 3.94 22.26 3.94 20.14 5.64Z" stroke="black" stroke-width="1.5" stroke-linecap="round" stroke-linejoin="round"/>
<path d="M24 31C25.3261 31 26.5979 30.4732 27.5355 29.5355C28.4732 28.5979 29 27.3261 29 26C29 24.6739 28.4732 23.4021 27.5355 22.4645C26.5979 21.5268 25.3261 21 24 21C22.6739 21 21.4021 21.5268 20.4645 22.4645C19.5268 23.4021 19 24.6739 19 26C19 27.3261 19.5268 28.5979 20.4645 29.5355C21.4021 30.4732 22.6739 31 24 31Z" stroke="black" stroke-width="1.5" stroke-linecap="round" stroke-linejoin="round"/>
</svg>
