<svg width="48" height="48" viewBox="0 0 48 48" fill="none" xmlns="http://www.w3.org/2000/svg">
<path d="M24.0401 5.82001C17.4201 5.82001 12.0401 11.2 12.0401 17.82V23.6C12.0401 24.82 11.5201 26.68 10.9001 27.72L8.60005 31.54C7.18005 33.9 8.16005 36.52 10.7601 37.4C19.3801 40.28 28.6801 40.28 37.3001 37.4C39.7201 36.6 40.7801 33.74 39.4601 31.54L37.1601 27.72C36.5601 26.68 36.0401 24.82 36.0401 23.6V17.82C36.0401 11.22 30.6401 5.82001 24.0401 5.82001Z" stroke="black" stroke-width="1.5" stroke-miterlimit="10" stroke-linecap="round"/>
<path d="M27.74 6.4C25.3214 5.71118 22.7585 5.71118 20.34 6.4C20.92 4.92 22.36 3.88 24.04 3.88C25.72 3.88 27.16 4.92 27.74 6.4Z" stroke="black" stroke-width="1.5" stroke-miterlimit="10" stroke-linecap="round" stroke-linejoin="round"/>
<path d="M30.04 38.12C30.04 41.42 27.34 44.12 24.04 44.12C22.4 44.12 20.88 43.44 19.8 42.36C18.6764 41.2346 18.0436 39.7103 18.04 38.12" stroke="black" stroke-width="1.5" stroke-miterlimit="10"/>
</svg>
