<svg width="36" height="36" viewBox="0 0 36 36" fill="none" xmlns="http://www.w3.org/2000/svg">
<path d="M32.895 10.14L27.84 30.435C27.6645 31.1689 27.2459 31.8219 26.6522 32.2876C26.0584 32.7533 25.3246 33.0044 24.57 33H4.85997C2.59497 33 0.974972 30.78 1.64997 28.605L7.96497 8.325C8.17599 7.63725 8.60124 7.03492 9.17869 6.60587C9.75615 6.17683 10.4556 5.94353 11.175 5.94H29.625C31.05 5.94 32.235 6.81 32.73 8.01C33.015 8.655 33.075 9.39 32.895 10.14Z" stroke="#C0C2C9" stroke-width="1.5" stroke-miterlimit="10"/>
<path d="M24 33H31.17C33.105 33 34.62 31.365 34.485 29.43L33 9M14.52 9.57L16.08 3.09M24.57 9.585L25.98 3.075M11.55 18H23.55M10.05 24H22.05" stroke="#C0C2C9" stroke-width="1.5" stroke-miterlimit="10" stroke-linecap="round" stroke-linejoin="round"/>
</svg>
