<svg width="48" height="48" viewBox="0 0 48 48" fill="none" xmlns="http://www.w3.org/2000/svg">
<path d="M40 19.2C40 11.2 36.8 8 28.8 8H19.2C11.2 8 8 11.2 8 19.2V28.8C8 36.8 11.2 40 19.2 40" stroke="black" stroke-width="1.5" stroke-linecap="round" stroke-linejoin="round"/>
<path d="M32.7 16C31.6 14.6 29.76 14 27 14H21C16 14 14 16 14 21V27C14 29.76 14.6 31.6 15.98 32.7M16.02 8V4M24 8V4M32 8V4M40 16H44M16.02 40V44M4 16H8M4 24H8M4 32H8" stroke="black" stroke-width="1.5" stroke-linecap="round" stroke-linejoin="round"/>
<path d="M33.42 37.18C33.8376 37.18 34.2511 37.0978 34.6369 36.9379C35.0227 36.7781 35.3733 36.5439 35.6686 36.2486C35.9639 35.9533 36.1981 35.6028 36.3579 35.2169C36.5177 34.8311 36.6 34.4176 36.6 34C36.6 33.5824 36.5177 33.1689 36.3579 32.7831C36.1981 32.3973 35.9639 32.0467 35.6686 31.7514C35.3733 31.4561 35.0227 31.2219 34.6369 31.0621C34.2511 30.9023 33.8376 30.82 33.42 30.82C32.5766 30.82 31.7678 31.155 31.1714 31.7514C30.575 32.3478 30.24 33.1566 30.24 34C30.24 34.8434 30.575 35.6522 31.1714 36.2486C31.7678 36.845 32.5766 37.18 33.42 37.18Z" stroke="black" stroke-width="1.5" stroke-miterlimit="10" stroke-linecap="round" stroke-linejoin="round"/>
<path d="M22.82 34.92V33.06C22.82 31.96 23.72 31.06 24.82 31.06C26.74 31.06 27.52 29.7 26.56 28.04C26.4278 27.8117 26.342 27.5596 26.3077 27.298C26.2733 27.0364 26.291 26.7707 26.3598 26.516C26.4286 26.2613 26.5471 26.0227 26.7084 25.8141C26.8698 25.6054 27.0709 25.4307 27.3 25.3L29.12 24.24C29.96 23.74 31.04 24.04 31.54 24.88L31.66 25.08C32.62 26.74 34.18 26.74 35.14 25.08L35.26 24.88C35.76 24.04 36.84 23.76 37.68 24.24L39.5 25.3C40.46 25.86 40.8001 27.08 40.2401 28.04C39.2801 29.7 40.06 31.06 41.98 31.06C43.08 31.06 43.98 31.96 43.98 33.06V34.92C43.98 36.02 43.08 36.92 41.98 36.92C40.06 36.92 39.2801 38.28 40.2401 39.94C40.3723 40.1683 40.4581 40.4204 40.4924 40.682C40.5268 40.9436 40.5091 41.2093 40.4403 41.464C40.3715 41.7187 40.253 41.9572 40.0917 42.1659C39.9303 42.3746 39.7292 42.5493 39.5 42.68L37.68 43.74C36.84 44.24 35.76 43.94 35.26 43.1L35.14 42.9C34.18 41.24 32.62 41.24 31.66 42.9L31.54 43.1C31.04 43.94 29.96 44.22 29.12 43.74L27.3 42.68C26.34 42.12 26 40.9 26.56 39.94C27.52 38.28 26.74 36.92 24.82 36.92C24.5567 36.9227 24.2954 36.8728 24.0515 36.7732C23.8077 36.6736 23.5861 36.5264 23.3999 36.3402C23.2136 36.1539 23.0664 35.9324 22.9668 35.6885C22.8673 35.4447 22.8174 35.1834 22.82 34.92Z" stroke="black" stroke-width="1.5" stroke-miterlimit="10" stroke-linecap="round" stroke-linejoin="round"/>
</svg>
