<svg width="48" height="48" viewBox="0 0 48 48" fill="none" xmlns="http://www.w3.org/2000/svg">
<path d="M18 44H30C40 44 44 40 44 30V18C44 8 40 4 30 4H18C8 4 4 8 4 18V30C4 40 8 44 18 44Z" stroke="black" stroke-width="1.5" stroke-linecap="round" stroke-linejoin="round"/>
<path d="M44.004 21.82H28.704M19.3 21.82H4M28.702 21.82C28.502 23.24 27.662 24.44 26.502 25.16V29.12C26.502 29.783 26.2386 30.4189 25.7698 30.8878C25.3009 31.3566 24.665 31.62 24.002 31.62C23.339 31.62 22.7031 31.3566 22.2342 30.8878C21.7654 30.4189 21.502 29.783 21.502 29.12V25.16C20.342 24.44 19.502 23.24 19.302 21.82C19.262 21.6 19.242 21.36 19.242 21.12C19.242 18.08 22.122 15.72 25.282 16.56C26.882 16.98 28.182 18.28 28.602 19.88C28.782 20.54 28.802 21.2 28.702 21.82Z" stroke="black" stroke-width="1.5" stroke-miterlimit="10"/>
</svg>
