<svg width="48" height="48" viewBox="0 0 48 48" fill="none" xmlns="http://www.w3.org/2000/svg">
<path d="M6 44H42M11.2 16.76H8C6.9 16.76 6 17.66 6 18.76V36C6 37.1 6.9 38 8 38H11.2C12.3 38 13.2 37.1 13.2 36V18.76C13.2 17.66 12.3 16.76 11.2 16.76ZM25.6 10.38H22.4C21.3 10.38 20.4 11.28 20.4 12.38V36C20.4 37.1 21.3 38 22.4 38H25.6C26.7 38 27.6 37.1 27.6 36V12.38C27.6 11.28 26.7 10.38 25.6 10.38ZM40 4H36.8C35.7 4 34.8 4.9 34.8 6V36C34.8 37.1 35.7 38 36.8 38H40C41.1 38 42 37.1 42 36V6C42 4.9 41.1 4 40 4Z" stroke="black" stroke-width="1.5" stroke-linecap="round" stroke-linejoin="round"/>
</svg>
