<svg width="48" height="48" viewBox="0 0 48 48" fill="none" xmlns="http://www.w3.org/2000/svg">
<path d="M33.94 28.88C36.68 29.34 39.7 28.86 41.82 27.44C44.64 25.56 44.64 22.48 41.82 20.6C39.68 19.18 36.62 18.7 33.88 19.18M14 28.88C11.26 29.34 8.24 28.86 6.12 27.44C3.3 25.56 3.3 22.48 6.12 20.6C8.26 19.18 11.32 18.7 14.06 19.18M36 14.32C35.8741 14.3 35.7459 14.3 35.62 14.32C34.2853 14.2717 33.0216 13.7064 32.096 12.7435C31.1704 11.7806 30.6555 10.4956 30.66 9.16C30.66 6.3 32.96 4 35.82 4C37.1885 4 38.501 4.54364 39.4687 5.51133C40.4364 6.47902 40.98 7.79148 40.98 9.16C40.9763 10.4965 40.456 11.7799 39.5278 12.7416C38.5997 13.7033 37.3356 14.2689 36 14.32ZM11.94 14.32C12.06 14.3 12.2 14.3 12.32 14.32C13.6547 14.2717 14.9184 13.7064 15.844 12.7435C16.7696 11.7806 17.2845 10.4956 17.28 9.16C17.28 6.3 14.98 4 12.12 4C10.7515 4 9.43902 4.54364 8.47133 5.51133C7.50365 6.47902 6.96001 7.79148 6.96001 9.16C6.98001 11.96 9.18 14.22 11.94 14.32ZM24 29.26C23.8741 29.24 23.7459 29.24 23.62 29.26C22.2853 29.2117 21.0216 28.6464 20.096 27.6835C19.1704 26.7206 18.6555 25.4356 18.66 24.1C18.66 21.24 20.96 18.94 23.82 18.94C25.1885 18.94 26.501 19.4836 27.4687 20.4513C28.4364 21.419 28.98 22.7315 28.98 24.1C28.96 26.9 26.76 29.18 24 29.26ZM18.18 35.56C15.36 37.44 15.36 40.52 18.18 42.4C21.38 44.54 26.62 44.54 29.82 42.4C32.64 40.52 32.64 37.44 29.82 35.56C26.64 33.44 21.38 33.44 18.18 35.56Z" stroke="black" stroke-width="1.5" stroke-linecap="round" stroke-linejoin="round"/>
</svg>
