<svg width="42" height="42" viewBox="0 0 42 42" fill="none" xmlns="http://www.w3.org/2000/svg">
<path d="M30.94 25.88C33.68 26.34 36.7 25.86 38.82 24.44C41.64 22.56 41.64 19.48 38.82 17.6C36.68 16.18 33.62 15.7 30.88 16.18M11 25.88C8.26 26.34 5.24 25.86 3.12 24.44C0.300005 22.56 0.300005 19.48 3.12 17.6C5.26 16.18 8.32001 15.7 11.06 16.18M33 11.32C32.8741 11.3 32.7459 11.3 32.62 11.32C31.2853 11.2717 30.0216 10.7064 29.096 9.74352C28.1704 8.78063 27.6555 7.4956 27.66 6.16C27.66 3.3 29.96 1 32.82 1C34.1885 1 35.501 1.54364 36.4687 2.51133C37.4364 3.47902 37.98 4.79148 37.98 6.16C37.9763 7.49655 37.456 8.77991 36.5278 9.74162C35.5997 10.7033 34.3356 11.2689 33 11.32ZM8.94 11.32C9.06 11.3 9.2 11.3 9.32 11.32C10.6547 11.2717 11.9184 10.7064 12.844 9.74352C13.7696 8.78063 14.2845 7.4956 14.28 6.16C14.28 3.3 11.98 1 9.12 1C7.75149 1 6.43902 1.54364 5.47133 2.51133C4.50365 3.47902 3.96001 4.79148 3.96001 6.16C3.98001 8.96 6.18 11.22 8.94 11.32ZM21 26.26C20.8741 26.24 20.7459 26.24 20.62 26.26C19.2853 26.2117 18.0216 25.6464 17.096 24.6835C16.1704 23.7206 15.6555 22.4356 15.66 21.1C15.66 18.24 17.96 15.94 20.82 15.94C22.1885 15.94 23.501 16.4836 24.4687 17.4513C25.4364 18.419 25.98 19.7315 25.98 21.1C25.96 23.9 23.76 26.18 21 26.26ZM15.18 32.56C12.36 34.44 12.36 37.52 15.18 39.4C18.38 41.54 23.62 41.54 26.82 39.4C29.64 37.52 29.64 34.44 26.82 32.56C23.64 30.44 18.38 30.44 15.18 32.56Z" stroke="black" stroke-width="1.5" stroke-linecap="round" stroke-linejoin="round"/>
</svg>
