<svg width="32" height="28" viewBox="0 0 32 28" fill="none" xmlns="http://www.w3.org/2000/svg">
<path d="M31 22.25H20.5M5.5 22.25H1M31 5.75H26.5M11.5 5.75H1M8.5 17.75H17.5C19.15 17.75 20.5 18.5 20.5 20.75V23.75C20.5 26 19.15 26.75 17.5 26.75H8.5C6.85 26.75 5.5 26 5.5 23.75V20.75C5.5 18.5 6.85 17.75 8.5 17.75ZM14.5 1.25H23.5C25.15 1.25 26.5 2 26.5 4.25V7.25C26.5 9.5 25.15 10.25 23.5 10.25H14.5C12.85 10.25 11.5 9.5 11.5 7.25V4.25C11.5 2 12.85 1.25 14.5 1.25Z" stroke="#2D55B4" stroke-width="1.5" stroke-miterlimit="10" stroke-linecap="round" stroke-linejoin="round"/>
</svg>
