<svg width="48" height="48" viewBox="0 0 48 48" fill="none" xmlns="http://www.w3.org/2000/svg">
<path d="M43.86 13.52L37.12 40.58C36.8861 41.5586 36.3279 42.4292 35.5363 43.0502C34.7447 43.6711 33.7662 44.0059 32.76 44H6.48004C3.46004 44 1.30004 41.04 2.20004 38.14L10.62 11.1C10.9014 10.183 11.4684 9.3799 12.2383 8.80784C13.0083 8.23579 13.9409 7.92472 14.9 7.92001H39.5C41.4 7.92001 42.98 9.08001 43.64 10.68C44.02 11.54 44.1 12.52 43.86 13.52Z" stroke="black" stroke-width="1.5" stroke-miterlimit="10"/>
<path d="M32 44H41.56C44.14 44 46.16 41.82 45.98 39.24L44 12M19.36 12.76L21.44 4.12001M32.76 12.78L34.64 4.10001M15.4 24H31.4M13.4 32H29.4" stroke="black" stroke-width="1.5" stroke-miterlimit="10" stroke-linecap="round" stroke-linejoin="round"/>
</svg>
